<?xml version="1.0" encoding="UTF-8"?>
<svg xmlns="http://www.w3.org/2000/svg" width="786" height="317" viewBox="0 0 786 317" role="img" aria-labelledby="logoTitle logoDesc">
  <title id="logoTitle">רהיטי ברגיג</title>
  <desc id="logoDesc">לוגו רהיטי ברגיג עם איור ארון</desc>
  <defs>
    <linearGradient id="panelFill" x1="0" y1="0" x2="0" y2="1">
      <stop offset="0" stop-color="#ffffff" stop-opacity="0.53"/>
      <stop offset="0.55" stop-color="#f0f0f0" stop-opacity="0.45"/>
      <stop offset="1" stop-color="#e9e9e9" stop-opacity="0.48"/>
    </linearGradient>
    <filter id="panelShadow" x="-8%" y="-16%" width="116%" height="132%" color-interpolation-filters="sRGB">
      <feDropShadow dx="0" dy="1" stdDeviation="1.3" flood-color="#000000" flood-opacity="0.26"/>
    </filter>
  </defs>
  <rect x="19" y="18" width="748" height="282" rx="29" fill="url(#panelFill)" stroke="#ffffff" stroke-opacity="0.48" filter="url(#panelShadow)"/>
  <path d="M 318 221 L 317 221 L 316 220 L 315 220 L 314 221 L 313 221 L 313 224 L 312 225 L 312 226 L 310 228 L 311 229 L 312 229 L 318 223 Z M 354 215 L 353 215 L 352 214 L 351 214 L 350 213 L 345 213 L 343 215 L 342 215 L 341 216 L 342 216 L 343 215 L 348 215 L 351 218 L 351 222 L 346 227 L 344 227 L 344 229 L 345 228 L 346 229 L 347 228 L 348 228 L 349 227 L 350 227 L 350 226 L 351 225 L 352 225 L 354 223 L 354 222 L 355 221 L 355 217 L 354 216 Z M 213 215 L 212 215 L 210 213 L 204 213 L 203 214 L 202 214 L 200 216 L 199 216 L 198 217 L 198 218 L 196 220 L 196 221 L 195 222 L 195 226 L 197 228 L 197 229 L 207 229 L 208 228 L 210 228 L 214 224 L 214 222 L 215 221 L 215 219 L 214 218 L 214 217 L 213 216 Z M 204 215 L 207 215 L 210 218 L 210 223 L 206 227 L 202 227 L 201 226 L 200 226 L 199 225 L 199 224 L 198 223 L 200 221 L 200 220 L 201 219 L 201 218 Z M 339 213 L 338 212 L 337 212 L 336 213 L 336 214 L 334 216 L 334 218 L 332 220 L 331 219 L 331 218 L 330 217 L 330 216 L 329 216 L 326 213 L 318 213 L 317 214 L 316 214 L 315 215 L 313 215 L 312 216 L 315 216 L 316 215 L 323 215 L 326 218 L 326 222 L 324 224 L 324 225 L 321 228 L 322 228 L 323 229 L 325 227 L 326 227 L 328 225 L 328 224 L 331 221 L 333 221 L 334 220 L 335 220 L 339 216 Z M 309 212 L 308 212 L 307 213 L 306 213 L 306 214 L 305 215 L 305 217 L 304 218 L 304 219 L 303 220 L 303 221 L 302 222 L 302 223 L 300 225 L 300 226 L 299 227 L 299 228 L 298 229 L 301 229 L 304 226 L 304 225 L 307 222 L 307 221 L 308 220 L 308 219 L 309 218 Z M 266 216 L 265 215 L 264 215 L 262 213 L 259 213 L 258 212 L 253 212 L 252 213 L 249 213 L 248 214 L 247 214 L 247 215 L 258 215 L 259 216 L 260 216 L 261 217 L 261 218 L 262 219 L 262 222 L 258 226 L 256 226 L 253 223 L 253 222 L 252 222 L 251 221 L 250 221 L 243 228 L 243 230 L 245 230 L 250 225 L 253 228 L 254 228 L 255 229 L 256 229 L 257 228 L 261 228 L 262 227 L 263 227 L 264 226 L 264 225 L 266 223 L 266 221 L 267 220 L 267 218 L 266 217 Z M 244 213 L 243 212 L 241 212 L 241 213 L 240 214 L 240 215 L 239 216 L 239 217 L 237 219 L 236 219 L 232 215 L 231 215 L 230 214 L 226 214 L 225 215 L 224 215 L 220 219 L 220 220 L 219 221 L 219 222 L 216 225 L 216 230 L 217 230 L 220 227 L 220 226 L 222 224 L 222 223 L 223 222 L 223 221 L 224 220 L 224 219 L 227 216 L 229 216 L 230 217 L 230 218 L 231 219 L 231 223 L 230 224 L 230 225 L 228 227 L 228 229 L 229 229 L 230 228 L 231 228 L 234 225 L 234 224 L 236 222 L 236 221 L 237 220 L 238 221 L 239 221 L 243 217 L 243 216 L 244 215 Z M 158 212 L 155 212 L 155 214 L 154 215 L 154 216 L 153 217 L 153 218 L 151 220 L 151 221 L 153 221 L 158 216 L 158 214 L 159 213 Z M 128 212 L 126 212 L 125 213 L 125 214 L 124 215 L 124 217 L 122 219 L 122 220 L 121 221 L 122 221 L 123 220 L 125 220 L 128 217 Z M 146 207 L 144 207 L 143 208 L 142 208 L 141 209 L 140 209 L 133 216 L 133 217 L 131 219 L 131 220 L 130 221 L 130 224 L 129 225 L 129 226 L 133 230 L 134 230 L 135 231 L 140 231 L 142 229 L 143 229 L 140 229 L 139 230 L 138 229 L 136 229 L 135 228 L 135 227 L 137 225 L 140 225 L 141 224 L 142 224 L 143 223 L 144 223 L 149 218 L 149 217 L 150 216 L 150 211 Z M 144 210 L 146 212 L 146 216 L 145 217 L 145 218 L 141 222 L 140 222 L 138 224 L 135 224 L 134 223 L 134 222 L 135 221 L 135 219 L 136 218 L 136 217 L 138 215 L 138 214 L 140 212 L 141 212 L 142 211 L 143 211 Z M 177 201 L 176 201 L 175 202 L 173 202 L 168 207 L 168 208 L 167 209 L 167 210 L 166 211 L 166 212 L 165 213 L 165 214 L 163 216 L 163 219 L 162 220 L 162 221 L 160 223 L 160 224 L 159 225 L 159 226 L 158 227 L 158 229 L 159 229 L 160 228 L 161 228 L 162 227 L 162 226 L 164 224 L 164 223 L 166 221 L 167 222 L 167 226 L 169 228 L 170 228 L 171 229 L 174 229 L 175 228 L 177 228 L 178 227 L 179 227 L 180 226 L 180 224 L 178 224 L 177 225 L 175 225 L 174 226 L 173 226 L 172 225 L 172 223 L 171 222 L 173 220 L 173 219 L 175 217 L 176 217 L 177 216 L 178 216 L 179 215 L 181 215 L 183 217 L 184 217 L 184 215 L 183 215 L 181 213 L 176 213 L 174 215 L 172 215 L 168 219 L 167 218 L 167 217 L 168 216 L 168 214 L 170 212 L 170 211 L 171 210 L 171 208 L 175 204 L 176 204 L 178 202 Z M 306 201 L 305 201 L 304 200 L 302 200 L 301 201 L 299 201 L 298 202 L 296 202 L 294 204 L 293 204 L 284 213 L 284 214 L 281 217 L 281 219 L 280 220 L 280 225 L 281 226 L 281 227 L 282 228 L 284 228 L 285 229 L 291 229 L 292 228 L 294 228 L 295 227 L 296 227 L 298 225 L 298 224 L 299 223 L 299 222 L 297 220 L 296 220 L 295 221 L 295 223 L 293 225 L 292 225 L 291 226 L 287 226 L 286 225 L 285 225 L 284 224 L 284 221 L 285 220 L 285 217 L 286 216 L 286 215 L 288 213 L 288 212 L 292 208 L 293 208 L 296 205 L 297 205 L 298 204 L 300 204 L 301 203 L 302 203 L 303 202 L 305 202 Z M 503 174 L 502 175 L 502 223 L 503 224 L 517 224 L 518 223 L 518 175 L 517 174 Z M 563 120 L 563 149 L 564 149 L 565 150 L 594 150 L 595 149 L 597 151 L 597 223 L 598 224 L 612 224 L 613 223 L 613 120 Z M 503 120 L 502 121 L 502 148 L 503 149 L 504 149 L 505 150 L 538 150 L 539 149 L 541 151 L 541 224 L 555 224 L 556 223 L 557 223 L 557 121 L 556 120 Z M 480 120 L 480 163 L 495 163 L 496 162 L 496 120 Z M 419 120 L 419 223 L 420 224 L 473 224 L 474 223 L 474 121 L 473 120 L 448 120 L 446 122 L 446 126 L 445 127 L 445 131 L 444 132 L 444 136 L 443 137 L 443 142 L 441 145 L 441 149 L 440 150 L 440 155 L 439 156 L 439 159 L 438 160 L 438 167 L 452 167 L 452 163 L 453 162 L 453 159 L 454 158 L 454 154 L 455 153 L 455 151 L 456 150 L 457 150 L 458 151 L 458 193 L 457 194 L 436 194 L 435 193 L 435 121 L 434 120 Z M 398 120 L 397 121 L 397 162 L 398 163 L 411 163 L 412 162 L 412 121 L 411 120 Z M 299 120 L 298 121 L 298 140 L 299 141 L 333 141 L 334 142 L 335 142 L 336 143 L 336 171 L 334 173 L 300 173 L 298 175 L 298 194 L 299 195 L 358 195 L 358 174 L 357 174 L 356 173 L 352 173 L 351 172 L 351 121 L 350 120 Z M 243 120 L 242 121 L 242 141 L 274 141 L 276 143 L 276 193 L 277 194 L 277 195 L 291 195 L 292 194 L 292 121 L 291 120 Z M 199 120 L 199 141 L 207 141 L 208 142 L 209 142 L 210 143 L 210 147 L 211 148 L 211 153 L 213 155 L 213 161 L 214 162 L 214 165 L 213 166 L 200 166 L 199 167 L 199 173 L 197 175 L 197 182 L 196 183 L 196 190 L 195 191 L 195 194 L 196 195 L 210 195 L 211 194 L 211 187 L 212 186 L 212 185 L 213 184 L 212 183 L 212 182 L 213 181 L 213 176 L 214 175 L 214 173 L 215 172 L 216 173 L 216 177 L 217 178 L 217 182 L 218 183 L 218 185 L 219 186 L 219 190 L 220 191 L 219 192 L 219 193 L 221 195 L 236 195 L 236 192 L 235 191 L 235 190 L 234 189 L 234 185 L 233 184 L 233 180 L 232 179 L 232 174 L 231 173 L 231 169 L 230 168 L 230 166 L 229 165 L 229 161 L 228 160 L 228 159 L 229 158 L 228 157 L 228 152 L 227 151 L 227 149 L 226 148 L 226 145 L 225 144 L 225 140 L 224 139 L 224 134 L 223 133 L 223 128 L 222 127 L 222 124 L 221 123 L 221 121 L 220 120 Z M 173 120 L 173 151 L 174 152 L 187 152 L 189 150 L 189 121 L 188 120 Z M 130 120 L 130 141 L 138 141 L 139 142 L 140 142 L 141 143 L 141 147 L 142 148 L 142 149 L 143 150 L 143 156 L 144 157 L 143 158 L 144 159 L 144 160 L 145 161 L 145 165 L 144 166 L 131 166 L 130 167 L 130 172 L 129 173 L 129 179 L 128 180 L 128 182 L 127 183 L 127 189 L 126 190 L 126 194 L 127 195 L 141 195 L 142 194 L 142 189 L 143 188 L 143 185 L 144 184 L 143 183 L 143 179 L 144 178 L 144 173 L 146 171 L 147 172 L 147 176 L 148 177 L 148 182 L 149 183 L 149 187 L 150 188 L 150 190 L 151 191 L 150 192 L 151 193 L 151 195 L 166 195 L 167 194 L 167 192 L 166 191 L 166 187 L 165 186 L 165 185 L 164 184 L 164 179 L 163 178 L 163 174 L 162 173 L 162 168 L 161 167 L 161 163 L 160 162 L 160 158 L 159 157 L 159 155 L 158 154 L 158 153 L 159 152 L 158 151 L 158 147 L 157 146 L 157 145 L 156 144 L 156 139 L 155 138 L 155 133 L 154 132 L 154 128 L 153 127 L 153 123 L 152 122 L 152 121 L 151 120 Z M 528 56 L 528 108 L 529 107 L 529 61 L 530 60 L 532 63 L 532 67 L 531 68 L 532 69 L 532 71 L 531 72 L 531 92 L 532 93 L 532 98 L 531 99 L 532 101 L 532 103 L 531 104 L 532 105 L 531 107 L 532 108 L 533 108 L 533 62 L 535 60 L 592 60 L 595 63 L 595 107 L 596 108 L 599 108 L 599 62 L 601 60 L 656 60 L 658 62 L 658 242 L 657 243 L 600 243 L 599 242 L 599 234 L 597 233 L 595 234 L 595 241 L 593 243 L 534 243 L 533 242 L 533 234 L 532 233 L 532 235 L 531 236 L 532 237 L 532 241 L 530 244 L 529 243 L 529 234 L 528 234 L 528 248 L 531 251 L 533 255 L 533 260 L 534 261 L 534 264 L 535 266 L 536 266 L 538 263 L 538 261 L 539 260 L 541 253 L 546 248 L 645 248 L 650 254 L 651 264 L 652 266 L 653 266 L 655 263 L 655 261 L 656 260 L 658 253 L 663 248 L 663 56 Z M 532 245 L 533 244 L 535 244 L 536 243 L 537 244 L 588 244 L 589 243 L 590 244 L 640 244 L 641 243 L 642 243 L 643 244 L 648 244 L 649 243 L 650 244 L 658 244 L 660 246 L 659 247 L 533 247 L 532 246 Z M 661 60 L 662 61 L 662 243 L 661 244 L 660 243 L 660 61 Z M 531 58 L 532 57 L 658 57 L 659 58 L 657 60 L 534 60 L 533 59 L 532 59 Z" fill="#191817" fill-rule="evenodd" clip-rule="evenodd"/>
</svg>
